# xmcd CD database file
#
# Track frame offsets:
#	150
#	16507
#	33685
#	50800
#	74247
#	90082
#	111480
#	128977
#	142685
#	161647
#	165692
#	189380
#
# Disc length: 2782 seconds
#
# Revision: 0
# Processed by: cddbd v1.5.1PL0 Copyright (c) Steve Scherf et al.
# Submitted via: CDex 1.51
#
DISCID=a20adc0c
DTITLE=勝手にしやがれ - ＷＩＬＤ　ＲＯＯＭ
DYEAR=2001
DGENRE=Jazz
TTITLE0=ＷＩＬＤ　ＲＯＯＭ
TTITLE1=ＶＯＤＫＡ　ＡＮＤ　ＫＯＯＬ
TTITLE2=夢をあきらめないで
TTITLE3=ＬＩＫＥ　ＭＡＲＬＯＮ　ＢＲＡＮＤＯ
TTITLE4=ＢＩＲＴＨ　ＯＦ　ＢＯＰ
TTITLE5=ＳＷＩＮＧ　Ｍ．
TTITLE6=ＢＩＴＣＨ
TTITLE7=ＳＡＬＴ　ＰＥＡＮＵＴＳ
TTITLE8=ＤＯＮ’Ｔ　ＬＥＴ　ＭＥ　ＤＯＷＮ
TTITLE9=
TTITLE10=ＧＯＯＤＴＩＭＥＳ　ＢＡＤＴＩＭＥＳ
TTITLE11=ＲＥＢＥＬ　ＲＯＣＫ
EXTD=YEAR: 2001
EXTT0=
EXTT1=
EXTT2=
EXTT3=
EXTT4=
EXTT5=
EXTT6=
EXTT7=
EXTT8=
EXTT9=
EXTT10=
EXTT11=
PLAYORDER=
